HIERARCHY
ROOT Hips
{
	OFFSET -3.958830 18.904000 13.208200
	CHANNELS 6 Xposition Yposition Zposition Zrotation Yrotation Xrotation 
	JOINT LHipJoint
	{
		OFFSET 0.000000 0.000000 0.000000
		CHANNELS 3 Zrotation Yrotation Xrotation
		JOINT LeftUpLeg
		{
			OFFSET 1.800000 -1.400000 0.085000
			CHANNELS 3 Zrotation Yrotation Xrotation
			JOINT LeftLeg
			{
				OFFSET 2.215000 -6.000000 0.000000
				CHANNELS 3 Zrotation Yrotation Xrotation
				JOINT LeftFoot
				{
					OFFSET 2.500000 -6.900000 0.000000
					CHANNELS 3 Zrotation Yrotation Xrotation
					JOINT LeftToeBase
					{
						OFFSET 0.200000 -0.500000 1.950000
						CHANNELS 3 Zrotation Yrotation Xrotation
						End Site
						{
							OFFSET 0.000000 0.000000 0.000000
						}
					}
				}
			}
		}
	}
	JOINT RHipJoint
	{
		OFFSET 0.000000 0.000000 0.000000
		CHANNELS 3 Zrotation Yrotation Xrotation
		JOINT RightUpLeg
		{
			OFFSET -1.800000 -1.400000 0.085000
			CHANNELS 3 Zrotation Yrotation Xrotation
			JOINT RightLeg
			{
				OFFSET -2.215000 -6.000000 0.000000
				CHANNELS 3 Zrotation Yrotation Xrotation
				JOINT RightFoot
				{
					OFFSET -2.500000 -6.900000 0.000000
					CHANNELS 3 Zrotation Yrotation Xrotation
					JOINT RightToeBase
					{
						OFFSET -0.200000 -0.500000 1.950000
						CHANNELS 3 Zrotation Yrotation Xrotation
						End Site
						{
							OFFSET 0.000000 0.000000 0.000000
						}
					}
				}
			}
		}
	}
	JOINT LowerBack
	{
		OFFSET 0.000000 0.000000 0.000000
		CHANNELS 3 Zrotation Yrotation Xrotation
		JOINT Spine
		{
			OFFSET -0.087000 1.940000 -0.288900
			CHANNELS 3 Zrotation Yrotation Xrotation
			JOINT Spine1
			{
				OFFSET 0.000000 1.950000 0.060000
				CHANNELS 3 Zrotation Yrotation Xrotation
				JOINT Neck
				{
					OFFSET 0.000000 0.000000 0.000000
					CHANNELS 3 Zrotation Yrotation Xrotation
					JOINT Neck1
					{
						OFFSET 0.000000 1.600000 0.340000
						CHANNELS 3 Zrotation Yrotation Xrotation
						JOINT Head
						{
							OFFSET 0.000000 1.667000 -0.240000
							CHANNELS 3 Zrotation Yrotation Xrotation
							End Site
							{
								OFFSET 0.000000 0.000000 0.000000
							}
						}
					}
				}
				JOINT LeftShoulder
				{
					OFFSET 0.000000 0.000000 0.000000
					CHANNELS 3 Zrotation Yrotation Xrotation
					JOINT LeftArm
					{
						OFFSET 2.700000 1.550000 -0.730000
						CHANNELS 3 Zrotation Yrotation Xrotation
						JOINT LeftForeArm
						{
							OFFSET 5.450000 0.000000 0.000000
							CHANNELS 3 Zrotation Yrotation Xrotation
							JOINT LeftHand
							{
								OFFSET 3.450000 0.000000 0.000000
								CHANNELS 3 Zrotation Yrotation Xrotation
								JOINT LeftHandIndex1
								{
									OFFSET 0.750000 0.000000 0.000000
									CHANNELS 3 Zrotation Yrotation Xrotation
									End Site
									{
										OFFSET 0.000000 0.000000 0.000000
									}
								}
							}
						}
					}
				}
				JOINT RightShoulder
				{
					OFFSET 0.000000 0.000000 0.000000
					CHANNELS 3 Zrotation Yrotation Xrotation
					JOINT RightArm
					{
						OFFSET -2.700000 1.550000 -0.730000
						CHANNELS 3 Zrotation Yrotation Xrotation
						JOINT RightForeArm
						{
							OFFSET -5.450000 0.000000 0.000000
							CHANNELS 3 Zrotation Yrotation Xrotation
							JOINT RightHand
							{
								OFFSET -3.450000 0.000000 0.000000
								CHANNELS 3 Zrotation Yrotation Xrotation
								JOINT RightHandIndex1
								{
									OFFSET -0.750000 0.000000 0.000000
									CHANNELS 3 Zrotation Yrotation Xrotation
									End Site
									{
										OFFSET 0.000000 0.000000 0.000000
									}
								}
							}
						}
					}
				}
			}
		}
	}
}
MOTION
Frames: 14
Frame Time: 0.016667
-0.031330 16.628540 -5.724260 -1.339540 -11.562790 -1.064480 -15.233817 14.222257 2.663584 3.142804 -1.034995 -3.001831 -2.957983 8.236882 31.131797 0.055181 6.716293 2.469918 0.240000 -0.208580 0.178380 18.181958 -9.815322 3.673637 -0.777960 5.504371 -34.592237 6.850178 -4.775185 18.822477 -0.065849 -2.244197 3.676814 -0.133840 0.368720 0.338970 -3.177694 -4.024194 -7.749984 7.823186 -7.361305 15.407991 -4.663018 -6.313659 -0.378997 3.142856 -4.213305 -8.365229 -10.056986 9.575680 34.226196 -1.991560 8.159490 -8.995320 -13.663390 4.067441 0.684330 -44.021970 4.196725 -5.541464 4.657019 -6.034682 -1.400440 -3.960164 2.682728 0.730080 0.152970 0.024060 0.256920 7.980809 -2.892450 4.696394 53.023186 -11.637476 -18.683469 24.293501 45.562009 6.183305 1.839064 -1.519637 -0.273190 0.205940 0.053070 -0.224510 
-0.046120 16.622060 -5.682840 -1.121491 -12.008604 -0.964010 -15.243615 14.201523 2.672935 2.881795 -1.151280 -3.381142 -2.938924 8.415708 32.207194 0.071632 6.893363 2.420178 0.200990 -0.267130 0.158740 18.180683 -9.819504 3.638771 -0.610741 5.469231 -34.292888 6.570811 -4.721925 18.811696 -0.040282 -2.243542 3.689227 -0.155360 0.404260 0.329230 -3.159991 -4.011314 -7.709564 7.589489 -7.220504 14.651119 -4.652570 -6.270933 -0.266064 3.123979 -4.221658 -8.316602 -9.984589 9.764464 33.808032 -1.884020 8.317980 -7.949010 -12.502979 4.951696 0.612953 -45.123718 4.579277 -5.813383 4.832545 -5.377619 -1.392890 -3.999900 2.654547 0.729380 0.174140 -0.009720 0.247510 6.872825 -3.747183 4.695115 54.572298 -11.999315 -19.454951 23.858012 46.345744 6.172288 1.814825 -1.524213 -0.304020 0.219040 0.079500 -0.232770 
-0.065640 16.616930 -5.614350 -1.055874 -12.818744 -0.856269 -15.245247 14.168773 2.684610 2.776544 -1.349609 -3.984863 -3.051256 8.796677 33.958602 0.140909 7.178685 2.329078 0.155070 -0.326470 0.122870 18.188875 -9.824642 3.596759 -0.281232 5.473024 -33.719637 6.389279 -4.690539 18.776893 -0.014430 -2.258607 3.699994 -0.186900 0.438400 0.326600 -3.166223 -3.978685 -7.661641 7.778062 -7.038046 13.716950 -4.681765 -6.166441 -0.405765 3.173341 -4.376266 -8.222277 -10.161952 10.057110 33.258886 -1.790940 8.548010 -6.301920 -10.727140 6.658217 0.363340 -47.101717 5.182700 -6.375411 5.384897 -4.405268 -1.353898 -4.046788 2.641676 0.710790 0.197270 -0.042760 0.243480 4.994131 -5.288547 4.769993 56.800511 -12.871447 -20.655466 24.052790 47.812136 6.529679 1.790103 -1.563569 -0.317890 0.212490 0.102420 -0.227850 
-0.092550 16.621720 -5.533150 -1.344483 -14.067971 -0.848994 -15.234219 14.138938 2.688305 3.094845 -1.503938 -4.486058 -3.289503 9.332983 35.789682 0.242564 7.495983 2.223390 0.115880 -0.366080 0.092910 18.206046 -9.839027 3.567716 0.511899 5.588903 -32.737825 6.141010 -4.608073 18.629579 0.000951 -2.249535 3.722638 -0.219550 0.453470 0.322950 -3.197593 -3.913916 -7.631803 8.380325 -6.815832 13.022647 -4.655389 -5.978358 -0.808808 3.312868 -4.513467 -8.063858 -10.298271 10.441961 33.051885 -1.960840 9.112140 -4.945630 -9.042666 8.722838 0.065006 -49.303992 6.349944 -7.301930 6.373864 -3.650153 -1.296410 -4.080726 2.624989 0.690420 0.209100 -0.057240 0.240820 3.006699 -7.160480 4.783487 58.949550 -13.671306 -21.766643 24.372275 48.902922 6.938408 1.781636 -1.598033 -0.316200 0.198130 0.111810 -0.217720 
-0.127440 16.627070 -5.446550 -1.726813 -15.756061 -0.871825 -15.221912 14.074589 2.691102 3.682305 -1.618872 -5.024312 -3.983588 10.187085 37.696399 0.358799 7.908766 2.085906 0.089600 -0.389360 0.062210 18.233924 -9.841049 3.536382 1.590005 5.766332 -31.583733 5.740201 -4.482380 18.520943 0.013262 -2.249664 3.744545 -0.239110 0.476930 0.324100 -3.250775 -3.808494 -7.583849 9.111410 -6.550660 12.254822 -4.496292 -5.753044 -1.102089 3.286357 -4.809556 -7.670232 -10.646838 11.126672 32.566203 -1.843240 9.699590 -3.747480 -7.650632 11.146346 -0.322211 -51.599802 7.997521 -8.541621 7.716811 -3.209279 -1.264297 -4.123662 2.608852 0.665200 0.227070 -0.075270 0.244580 1.613655 -9.279767 4.565074 60.334236 -14.424882 -22.638438 24.934995 50.108161 7.522103 1.766809 -1.639549 -0.311760 0.188060 0.120340 -0.204080 
-0.165420 16.640340 -5.362700 -2.021473 -17.336748 -1.174933 -15.215286 14.041098 2.729434 4.367027 -1.761819 -5.611410 -4.669844 11.142483 39.822356 0.492289 8.358320 1.928311 0.084090 -0.394190 0.056630 18.241939 -9.854396 3.493931 2.235841 5.773392 -30.146555 5.803436 -4.473922 18.262401 -0.002335 -2.263362 3.750790 -0.259600 0.466270 0.329320 -3.260090 -3.758058 -7.597260 9.474223 -6.288535 12.117373 -4.079345 -5.514104 -1.853654 3.302652 -5.022692 -7.349684 -10.983954 11.746514 32.916175 -1.783320 10.327620 -3.323260 -6.454447 13.618282 -0.656218 -53.569245 10.187404 -10.020888 8.812689 -3.202041 -1.259866 -4.132311 2.587278 0.667440 0.216310 -0.061580 0.247330 0.377012 -11.410537 4.355304 61.367999 -15.282233 -23.407252 25.660219 51.321140 8.267639 1.763687 -1.670152 -0.295540 0.169780 0.113860 -0.197070 
-0.202910 16.650290 -5.274160 -2.402267 -18.671074 -1.450582 -15.203086 14.014121 2.761696 5.047617 -1.904690 -6.200390 -5.030456 11.942941 41.873092 0.626686 8.755788 1.792182 0.084880 -0.380510 0.042700 18.253958 -9.876440 3.441201 2.651067 5.641578 -28.529264 6.302894 -4.544402 17.687552 -0.019700 -2.296823 3.757635 -0.271560 0.458730 0.328710 -3.289187 -3.710488 -7.596996 10.014194 -6.183570 11.953295 -3.586343 -5.407497 -2.609318 3.203492 -5.294645 -7.020014 -11.392322 12.432754 33.050145 -1.455370 10.887330 -2.796800 -5.303048 16.153522 -0.881306 -55.274315 12.845168 -11.780781 9.157560 -4.050294 -1.352411 -4.126713 2.568354 0.658090 0.207160 -0.049850 0.259200 -0.602213 -13.569041 4.110897 61.835378 -16.375210 -24.041157 26.985441 53.051168 9.425180 1.757352 -1.722563 -0.273930 0.153460 0.098960 -0.180430 
-0.242700 16.651420 -5.195530 -2.628576 -20.260046 -1.676114 -15.200296 13.963652 2.789528 5.469943 -1.930682 -6.789323 -5.310199 12.730664 43.792082 0.747471 9.141644 1.666330 0.087440 -0.367700 0.025760 18.264465 -9.896418 3.397150 3.145354 5.552809 -27.189320 6.408835 -4.549977 17.400504 -0.032788 -2.345162 3.758288 -0.274090 0.462020 0.332280 -3.305385 -3.619513 -7.580647 10.178893 -5.881258 11.601700 -2.897584 -5.153757 -2.967469 2.983152 -5.334659 -6.672543 -11.296435 12.985172 33.036049 -1.161280 11.476440 -2.028990 -4.266118 18.197792 -0.901035 -56.609857 15.475647 -13.436196 9.002510 -4.882946 -1.449865 -4.127944 2.554203 0.646400 0.210680 -0.046200 0.278150 -1.215592 -15.370480 3.752967 62.394207 -16.986914 -24.686823 27.297565 54.722238 10.105866 1.745632 -1.774044 -0.261760 0.137920 0.083570 -0.165870 
-0.278780 16.654810 -5.134030 -2.942261 -21.759608 -2.067013 -15.207160 13.955688 2.822255 6.093616 -1.906140 -7.229337 -5.559107 13.480581 45.411429 0.839848 9.485188 1.544195 0.116010 -0.339690 0.047700 18.259314 -9.899272 3.364004 3.731352 5.439244 -25.667826 6.487429 -4.545538 17.094741 -0.064465 -2.378021 3.749386 -0.268390 0.434540 0.337560 -3.276170 -3.626239 -7.606282 10.192773 -5.438198 11.660768 -1.830883 -4.700490 -3.519869 2.725466 -5.405634 -6.302504 -11.567873 13.296309 34.009490 -1.048240 11.726950 -1.970790 -3.851773 20.059284 -1.117723 -57.463837 17.504600 -14.592991 9.131781 -5.242576 -1.506955 -4.113253 2.534263 0.660630 0.190990 -0.022130 0.286600 -1.104080 -16.909949 3.396097 62.274732 -17.983228 -25.249164 27.834335 57.135911 11.108848 1.732632 -1.825129 -0.245790 0.122350 0.060470 -0.167240 
-0.316190 16.651290 -5.082860 -3.213647 -22.665931 -2.638612 -15.244673 14.016980 2.834259 6.634523 -1.898365 -7.433795 -5.180346 13.792427 46.857744 0.878233 9.718099 1.446765 0.157610 -0.298850 0.088450 18.222153 -9.884490 3.320146 4.263947 5.182356 -23.942891 6.474434 -4.510199 16.594924 -0.100187 -2.390757 3.740793 -0.248850 0.389450 0.337980 -3.143601 -3.785292 -7.628864 9.562313 -4.920661 11.795476 -0.059888 -4.207214 -3.818081 2.339369 -5.455375 -5.878054 -12.086964 13.317339 35.381910 -1.157040 11.609830 -2.759930 -3.457011 21.750223 -1.359288 -58.318829 18.800855 -15.430410 9.132091 -5.460686 -1.583779 -4.091234 2.503622 0.689320 0.160550 0.010240 0.284230 -0.611282 -18.255854 2.976442 61.621539 -19.102842 -25.685875 28.530062 59.827054 12.279749 1.708442 -1.874767 -0.234070 0.115860 0.039300 -0.180920 
-0.348620 16.649160 -5.040490 -3.569568 -23.480385 -3.420382 -15.284313 14.114227 2.836539 7.142494 -1.864433 -7.328096 -4.506531 13.868347 48.143464 0.882607 9.884584 1.364299 0.213470 -0.249890 0.156600 18.176393 -9.872959 3.291682 4.793565 4.889516 -22.102462 6.464559 -4.509458 16.183879 -0.155513 -2.405985 3.722953 -0.225860 0.323450 0.338430 -2.982362 -3.989441 -7.681213 8.938940 -4.344801 12.282528 1.679761 -3.580539 -4.113338 2.080447 -5.381159 -5.492867 -12.634753 13.162888 37.683181 -1.539520 11.325300 -4.443450 -3.436022 23.158978 -1.705051 -58.885307 19.570583 -15.983249 9.175066 -5.904782 -1.705514 -4.051162 2.458731 0.745390 0.113140 0.061790 0.272060 0.014892 -19.384851 2.645514 60.858900 -20.256513 -26.042127 29.495161 62.225175 13.514023 1.681431 -1.904868 -0.224070 0.118550 0.016930 -0.208750 
-0.368410 16.649150 -5.003470 -4.054415 -23.658928 -4.244073 -15.300159 14.226056 2.814527 7.428322 -1.935951 -7.123313 -3.120007 13.382751 49.448789 0.863237 9.917781 1.312133 0.291170 -0.168660 0.233580 18.146565 -9.895753 3.274663 5.123392 4.525499 -20.318291 6.562114 -4.557242 15.750023 -0.225914 -2.434127 3.694106 -0.190740 0.234020 0.346510 -2.882600 -4.151559 -7.727222 8.821966 -4.063560 12.938078 2.799542 -3.178055 -4.400692 1.972678 -5.189905 -5.141689 -12.963107 12.970375 40.257559 -1.975280 11.031860 -6.732710 -3.803036 24.110064 -2.119506 -59.173169 19.739092 -16.201565 9.596828 -6.323617 -1.797472 -3.991447 2.443690 0.802650 0.053660 0.132790 0.265240 0.677651 -20.261740 2.316005 60.545825 -20.765088 -26.318452 29.266172 63.429410 13.787538 1.671625 -1.910208 -0.196000 0.107160 -0.020490 -0.233190 
-0.375290 16.647160 -4.986550 -4.552588 -23.954460 -4.845265 -15.302023 14.319781 2.791033 7.472698 -2.006266 -7.097249 -1.605788 12.762757 50.744510 0.846664 9.924531 1.271144 0.359100 -0.092290 0.301560 18.130911 -9.909863 3.291137 5.500887 4.367906 -19.207759 6.610317 -4.621469 15.802453 -0.290173 -2.467152 3.656318 -0.158490 0.150470 0.356940 -2.829091 -4.271676 -7.782730 9.054054 -3.818994 13.795999 3.469615 -2.719223 -4.916534 1.978758 -5.004588 -4.759585 -13.251611 12.711093 42.592407 -2.749500 10.748200 -8.959220 -4.565709 24.833558 -2.726773 -58.909655 19.116050 -15.753989 9.863513 -5.968753 -1.774333 -3.943760 2.438225 0.847160 0.000270 0.199400 0.256720 1.446515 -20.938175 1.953018 60.568151 -20.586776 -26.427913 27.517896 63.926520 13.097670 1.680403 -1.888670 -0.165320 0.093560 -0.053400 -0.251400 
-0.376340 16.639940 -4.985010 -4.824479 -24.226220 -5.372014 -15.314493 14.400909 2.778578 7.310952 -2.056584 -7.179667 -0.189514 12.167757 51.988062 0.819791 9.954295 1.228760 0.416090 -0.038850 0.362020 18.106887 -9.918642 3.309139 5.850706 4.295862 -18.536933 6.310555 -4.607995 16.049551 -0.333622 -2.477430 3.631134 -0.129380 0.084180 0.362270 -2.745493 -4.378724 -7.838201 8.864677 -3.534447 14.645127 4.119391 -2.235905 -5.334365 1.981344 -4.734370 -4.465270 -13.265789 12.486174 44.763544 -3.263450 10.451940 -10.732110 -5.426186 25.132135 -3.186804 -58.418430 18.485733 -15.221326 10.070107 -5.726214 -1.760449 -3.904051 2.435157 0.893200 -0.042050 0.245800 0.246590 2.367205 -21.221273 1.592728 60.364435 -19.956195 -26.138984 25.974788 63.299856 12.194475 1.694250 -1.842213 -0.152050 0.085810 -0.075490 -0.276810 
